# xmcd
#
# Track frame offsets:
#	150
#	18098
#	37421
#	55881
#	75734
#	93147
#	109292
#	127779
#	140200
#	157985
#	174367
#	187549
#	200633
#	216270
#	230159
#	247408
#
# Disc length: 3540 seconds
#
# Revision: 0
# Processed by: cddbd v1.5.2PL0 Copyright (c) Steve Scherf et al.
# Submitted via: audiograbber 1.83.01
#
DISCID=df0dd210
DTITLE=Lea Pennanen - Me Leijonat cd 2/5 
DYEAR=2008
DGENRE=speech
TTITLE0=Luku8. Isäleijonan syntymäpäivä
TTITLE1=Luku8. Isäleijonan syntymäpäivä -osa2
TTITLE2=Luku9. Retki virralle
TTITLE3=Luku9. Retki virralle -osa2
TTITLE4=Luku10: Eläinten valtias
TTITLE5=Luku10: Eläinten valtias -osa2
TTITLE6=Luku11. Suuri Vaara
TTITLE7=Luku11. Suuri Vaara - osa2
TTITLE8=Luku12. Vippe Yöeläin
TTITLE9=Luku12. Vippe Yöeläin -osa2
TTITLE10=Luku13. Rakas oma Äitileijona
TTITLE11=Luku13. Rakas oma Äitileijona -osa2
TTITLE12=Luku14. Tohtori Tiikerin vastaanotto
TTITLE13=Luku14. Tohtori Tiikerin vastaanotto -osa2
TTITLE14=Luku15. Viidakkopolku
TTITLE15=Luku15. Viidakkopolku -osa2
EXTD=
EXTT0=
EXTT1=
EXTT2=
EXTT3=
EXTT4=
EXTT5=
EXTT6=
EXTT7=
EXTT8=
EXTT9=
EXTT10=
EXTT11=
EXTT12=
EXTT13=
EXTT14=
EXTT15=
PLAYORDER=
